<?xml version="1.0" encoding="UTF-8"?>
<svg xmlns="http://www.w3.org/2000/svg" viewBox="0 0 2000 1250">
  <defs>
    <style>
      .ef {
        fill: #040000;
      }

      .ef, .eg, .eh, .ei, .ej, .ek, .el {
        stroke: #000;
      }

      .ef, .eg, .el {
        stroke-width: .5px;
      }

      .eg, .eh, .ei, .ej, .ek {
        stroke-miterlimit: 10;
      }

      .eg, .eh, .ej, .ek {
        fill: none;
      }

      .eh {
        stroke-width: .75px;
      }

      .ei {
        fill-rule: evenodd;
      }

      .ei, .ek {
        stroke-width: .25px;
      }

      .ej {
        stroke-width: .4px;
      }

      .el {
        fill: #040000;
      }
    </style>
  </defs>
  <g id="aq" data-name="RF">
    <g id="ar" data-name="LWPOLYLINE">
      <polyline class="ek" points="757 470.19 757 287.72 533.2 287.72 533.2 470.19"/>
    </g>
    <g id="as" data-name="LWPOLYLINE">
      <polyline class="ek" points="756.15 470.19 756.15 288.57 534.05 288.57 534.05 470.19"/>
    </g>
    <g id="at" data-name="LWPOLYLINE">
      <polyline class="ek" points="772.45 480.82 1277.3 480.82 1277.3 295.15 1278.15 295.15 1278.15 481.67 772.45 481.67"/>
    </g>
    <g id="au" data-name="LWPOLYLINE">
      <line class="ek" x1="1142.68" y1="293.02" x2="1142.68" y2="447.88"/>
    </g>
    <g id="av" data-name="LWPOLYLINE">
      <rect class="ek" x="1152.88" y="293.88" width="93.03" height="154.01"/>
    </g>
    <g id="aw" data-name="LWPOLYLINE">
      <line class="ek" x1="1132.47" y1="293.02" x2="1132.47" y2="447.88"/>
    </g>
    <g id="ax" data-name="LWPOLYLINE">
      <line class="ek" x1="1122.27" y1="293.02" x2="1122.27" y2="447.88"/>
    </g>
    <g id="ay" data-name="LWPOLYLINE">
      <polyline class="ek" points="1152.88 447.88 1122.27 447.88 1122.27 480.82"/>
    </g>
    <g id="az" data-name="LWPOLYLINE">
      <rect class="ek" x="1079.3" y="454.74" width="34.02" height="17.01"/>
    </g>
    <g id="ba" data-name="LWPOLYLINE">
      <rect class="ek" x="1041.03" y="454.74" width="34.02" height="17.01"/>
    </g>
    <g id="bb" data-name="LWPOLYLINE">
      <rect class="ek" x="1003.19" y="454.74" width="34.02" height="17.01"/>
    </g>
    <g id="bc" data-name="LWPOLYLINE">
      <rect class="ek" x="964.92" y="454.74" width="34.02" height="17.01"/>
    </g>
    <g id="bd" data-name="LWPOLYLINE">
      <rect class="ek" x="927.08" y="454.74" width="34.02" height="17.01"/>
    </g>
    <g id="be" data-name="LWPOLYLINE">
      <rect class="ek" x="1155.43" y="296.43" width="87.93" height="148.9"/>
    </g>
    <g id="bf" data-name="LINE">
      <line class="ek" x1="521.86" y1="445.95" x2="476.37" y2="445.95"/>
    </g>
    <g id="bg" data-name="LINE">
      <line class="ek" x1="521.86" y1="454.46" x2="476.37" y2="454.46"/>
    </g>
    <g id="bh" data-name="LINE">
      <line class="ek" x1="521.86" y1="462.96" x2="476.37" y2="462.96"/>
    </g>
    <g id="bi" data-name="LWPOLYLINE">
      <line class="ek" x1="518.04" y1="557.36" x2="480.05" y2="557.36"/>
    </g>
    <g id="bj" data-name="LWPOLYLINE">
      <line class="ek" x1="518.04" y1="565.86" x2="480.05" y2="565.86"/>
    </g>
    <g id="bk" data-name="LWPOLYLINE">
      <line class="ek" x1="518.04" y1="574.36" x2="480.05" y2="574.36"/>
    </g>
    <g id="bl" data-name="LWPOLYLINE">
      <line class="ek" x1="518.04" y1="582.87" x2="480.05" y2="582.87"/>
    </g>
    <g id="bm" data-name="LWPOLYLINE">
      <line class="ek" x1="518.04" y1="591.37" x2="480.05" y2="591.37"/>
    </g>
    <g id="bn" data-name="LWPOLYLINE">
      <line class="ek" x1="518.04" y1="608.38" x2="480.05" y2="608.38"/>
    </g>
    <g id="bo" data-name="LWPOLYLINE">
      <line class="ek" x1="518.04" y1="599.88" x2="480.05" y2="599.88"/>
    </g>
    <g id="bp" data-name="LWPOLYLINE">
      <line class="ek" x1="518.04" y1="680.66" x2="518.04" y2="783.28"/>
    </g>
    <g id="bq" data-name="LWPOLYLINE">
      <line class="ek" x1="480.05" y1="680.66" x2="480.05" y2="783.28"/>
    </g>
    <g id="br" data-name="LWPOLYLINE">
      <line class="ek" x1="518.04" y1="774.21" x2="480.05" y2="774.21"/>
    </g>
    <g id="bs" data-name="LWPOLYLINE">
      <line class="ek" x1="518.04" y1="765.7" x2="480.05" y2="765.7"/>
    </g>
    <g id="bt" data-name="LWPOLYLINE">
      <line class="ek" x1="518.04" y1="757.2" x2="480.05" y2="757.2"/>
    </g>
    <g id="bu" data-name="LWPOLYLINE">
      <line class="ek" x1="518.04" y1="748.69" x2="480.05" y2="748.69"/>
    </g>
    <g id="bv" data-name="LWPOLYLINE">
      <line class="ek" x1="518.04" y1="740.19" x2="480.05" y2="740.19"/>
    </g>
    <g id="bw" data-name="LWPOLYLINE">
      <line class="ek" x1="518.04" y1="731.69" x2="480.05" y2="731.69"/>
    </g>
    <g id="bx" data-name="LWPOLYLINE">
      <line class="ek" x1="518.04" y1="723.18" x2="480.05" y2="723.18"/>
    </g>
    <g id="by" data-name="LWPOLYLINE">
      <line class="ek" x1="518.04" y1="714.68" x2="480.05" y2="714.68"/>
    </g>
    <g id="bz" data-name="LWPOLYLINE">
      <line class="ek" x1="518.04" y1="706.17" x2="480.05" y2="706.17"/>
    </g>
    <g id="ca" data-name="LWPOLYLINE">
      <line class="ek" x1="518.04" y1="697.67" x2="480.05" y2="697.67"/>
    </g>
    <g id="cb" data-name="LWPOLYLINE">
      <line class="ek" x1="518.04" y1="689.17" x2="480.05" y2="689.17"/>
    </g>
    <g id="cc" data-name="LWPOLYLINE">
      <line class="ek" x1="518.04" y1="680.66" x2="480.05" y2="680.66"/>
    </g>
    <g id="cd" data-name="LWPOLYLINE">
      <line class="ek" x1="518.04" y1="642.39" x2="480.05" y2="642.39"/>
    </g>
    <g id="ce" data-name="LWPOLYLINE">
      <line class="ek" x1="518.04" y1="633.89" x2="480.05" y2="633.89"/>
    </g>
    <g id="cf" data-name="LWPOLYLINE">
      <line class="ek" x1="518.04" y1="625.39" x2="480.05" y2="625.39"/>
    </g>
    <g id="cg" data-name="LWPOLYLINE">
      <line class="ek" x1="518.04" y1="616.88" x2="480.05" y2="616.88"/>
    </g>
    <g id="ch" data-name="LINE">
      <line class="ek" x1="521.86" y1="783.28" x2="476.37" y2="783.28"/>
    </g>
    <g id="ci" data-name="LINE">
      <line class="ek" x1="521.86" y1="800.28" x2="476.37" y2="800.28"/>
    </g>
    <g id="cj" data-name="LINE">
      <line class="ek" x1="476.37" y1="287.72" x2="521.86" y2="287.72"/>
    </g>
    <g id="ck" data-name="LWPOLYLINE">
      <polygon class="ek" points="1417.33 275.52 476.37 275.54 476.37 800.28 470.7 800.28 470.7 264.76 1416.82 264.76 1417.33 275.52"/>
    </g>
    <g id="cl" data-name="LWPOLYLINE">
      <rect class="ek" x="1191.83" y="290.9" width="85.32" height="2.13"/>
    </g>
    <g id="cm" data-name="LWPOLYLINE">
      <rect class="ek" x="1108.92" y="290.9" width="82.06" height="2.13"/>
    </g>
    <g id="cn" data-name="LWPOLYLINE">
      <rect class="ek" x="1026" y="290.9" width="82.06" height="2.13"/>
    </g>
    <g id="co" data-name="LWPOLYLINE">
      <rect class="ek" x="774" y="287.21" width="503.15" height="2.83"/>
    </g>
    <g id="cp" data-name="LWPOLYLINE">
      <rect class="ek" x="943.09" y="290.9" width="82.06" height="2.13"/>
    </g>
    <g id="cq" data-name="LWPOLYLINE">
      <rect class="ek" x="777.3" y="290.9" width="82.06" height="2.13"/>
    </g>
    <g id="cr" data-name="LWPOLYLINE">
      <rect class="ek" x="860.18" y="290.9" width="82.06" height="2.13"/>
    </g>
    <g id="cs" data-name="LWPOLYLINE">
      <polyline class="ek" points="480.05 680.66 480.05 548.85 518.04 548.85 518.04 680.66"/>
    </g>
    <g id="ct" data-name="LWPOLYLINE">
      <polyline class="ej" points="772.45 493.01 1289.48 493.01 1289.48 276.02 766.63 276.02 766.63 276.39"/>
    </g>
    <g id="cu" data-name="LWPOLYLINE">
      <polyline class="ej" points="772.45 490.17 1286.65 490.17 1286.65 278.85 768.33 278.85"/>
    </g>
    <g id="cv" data-name="LWPOLYLINE">
      <polyline class="ej" points="772.45 484.51 1280.98 484.51 1280.98 284.52 768.33 284.52"/>
    </g>
    <g id="cw" data-name="LWPOLYLINE">
      <polyline class="ej" points="551.63 547.92 551.63 487.96 545.96 487.96 545.96 942.36 551.63 942.36 551.63 547.92"/>
    </g>
    <g id="cx" data-name="LWPOLYLINE">
      <rect class="ej" x="588.65" y="627.29" width="36.28" height="21.69"/>
    </g>
    <g id="cy" data-name="LWPOLYLINE">
      <rect class="ej" x="588.65" y="590.44" width="36.28" height="21.69"/>
    </g>
    <g id="cz" data-name="LWPOLYLINE">
      <rect class="ej" x="588.65" y="553.59" width="36.28" height="21.69"/>
    </g>
    <g id="da" data-name="LWPOLYLINE">
      <polyline class="eg" points="768.33 470.19 768.33 276.39 521.86 276.39 521.86 473.96"/>
    </g>
    <g id="db" data-name="LWPOLYLINE">
      <polyline class="eg" points="765.5 470.19 765.5 279.22 524.7 279.22 524.7 470.19"/>
    </g>
    <g id="dc" data-name="LWPOLYLINE">
      <polyline class="eg" points="759.83 470.19 759.83 284.89 530.37 284.89 530.37 470.19"/>
    </g>
    <g id="dd" data-name="LWPOLYLINE">
      <rect class="eg" x="566.08" y="783.48" width="75.97" height="81.64"/>
    </g>
    <g id="de" data-name="LWPOLYLINE">
      <rect class="eg" x="575.72" y="793.11" width="56.69" height="62.36"/>
    </g>
    <g id="df" data-name="LWPOLYLINE">
      <rect class="eg" x="572.89" y="518.86" width="116.93" height="145.28"/>
    </g>
    <g id="dg" data-name="LWPOLYLINE">
      <rect class="eh" x="521.86" y="470.19" width="250.58" height="491.44"/>
    </g>
    <g id="dh" data-name="LWPOLYLINE">
      <rect class="eh" x="524.7" y="473.02" width="244.91" height="485.77"/>
    </g>
    <g id="di" data-name="LWPOLYLINE">
      <rect class="eh" x="530.37" y="478.69" width="233.57" height="474.43"/>
    </g>
  </g>
  <g id="dr" data-name="SCALE">
    <g>
      <g id="ds" data-name="MTEXT">
        <path class="el" d="M281.36,1108.4c-.64-.5-1.13-1.2-1.49-2.1-.36-.9-.54-1.92-.54-3.06s.18-2.15.54-3.04c.36-.9.85-1.6,1.49-2.1.63-.5,1.36-.75,2.17-.75s1.53.25,2.17.75c.63.5,1.13,1.2,1.49,2.1.36.9.54,1.91.54,3.04s-.18,2.16-.54,3.05c-.36.89-.85,1.59-1.49,2.1-.64.51-1.36.76-2.17.76s-1.54-.25-2.17-.75ZM285.02,1107.36c.44-.41.78-.96,1.02-1.67s.36-1.52.36-2.44-.12-1.74-.36-2.45c-.24-.72-.58-1.27-1.02-1.67-.44-.4-.93-.6-1.49-.6s-1.05.2-1.48.6c-.43.4-.77.96-1.02,1.67-.25.71-.37,1.53-.37,2.43s.12,1.75.37,2.46c.25.71.58,1.27,1.02,1.67.43.41.93.61,1.48.61s1.05-.2,1.49-.61Z"/>
      </g>
      <g id="dt" data-name="MTEXT">
        <path class="el" d="M336.68,1107.21c.19-.17.42-.38.71-.64.93-.85,1.68-1.57,2.24-2.15.57-.58,1.05-1.17,1.44-1.78.39-.6.59-1.16.59-1.67,0-.48-.09-.9-.28-1.27-.19-.37-.45-.66-.78-.86s-.71-.31-1.15-.31c-.47,0-.93.16-1.37.48s-.78.73-1,1.23l-1.2-.51c.3-.71.79-1.28,1.46-1.73.67-.45,1.38-.67,2.11-.67.69,0,1.31.16,1.85.46s.96.74,1.26,1.29.45,1.18.45,1.9-.22,1.41-.67,2.14c-.45.73-.98,1.41-1.6,2.04-.62.63-1.42,1.39-2.42,2.27-.49.45-.96.88-1.39,1.3l-.94-.85c.28-.27.51-.49.7-.66ZM335.99,1107.87h7.22v1.19h-7.05l-.18-1.19Z"/>
      </g>
      <g id="du" data-name="MTEXT">
        <path class="el" d="M423.16,1101.84c.55-.25,1.08-.38,1.59-.38.77,0,1.45.16,2.06.49.6.33,1.07.78,1.41,1.35.34.58.5,1.24.5,1.99s-.17,1.43-.5,2.02c-.33.59-.8,1.05-1.4,1.39-.6.34-1.29.5-2.07.5-.6,0-1.16-.12-1.69-.38-.53-.25-.98-.6-1.35-1.05-.37-.45-.62-.96-.74-1.52l1.3-.3c.13.59.42,1.07.89,1.43s1,.55,1.59.55c.5,0,.95-.11,1.35-.34.4-.22.72-.54.94-.94.23-.41.34-.86.34-1.36s-.11-.95-.34-1.34-.54-.69-.94-.91-.85-.33-1.35-.33c-.33,0-.68.09-1.04.26-.36.18-.66.4-.9.68l-.99-.86c.34-.38.79-.7,1.34-.95ZM421.48,1103.47l.37-6.04h5.93v1.18h-4.64l-.32,5.04-1.33-.19Z"/>
      </g>
      <g id="dv" data-name="MTEXT">
        <path class="el" d="M312,1109.04h-1.35v-10.09l-1.86,1.2-.67-1.07,2.55-1.62h1.33v11.58Z"/>
      </g>
      <g id="dw" data-name="MTEXT">
        <g>
          <path class="el" d="M561.37,1109.04h-1.35v-10.09l-1.86,1.2-.67-1.07,2.55-1.62h1.33v11.58Z"/>
          <path class="el" d="M565.83,1108.4c-.64-.5-1.13-1.2-1.49-2.1s-.54-1.92-.54-3.06.18-2.15.54-3.04.85-1.6,1.49-2.1c.63-.5,1.36-.75,2.17-.75s1.53.25,2.17.75,1.13,1.2,1.49,2.1.54,1.91.54,3.04-.18,2.16-.54,3.05-.85,1.59-1.49,2.1c-.64.51-1.36.76-2.17.76s-1.54-.25-2.17-.75ZM569.49,1107.36c.44-.41.78-.96,1.02-1.67s.36-1.52.36-2.44-.12-1.74-.36-2.45c-.24-.72-.58-1.27-1.02-1.67-.44-.4-.93-.6-1.49-.6s-1.05.2-1.48.6c-.43.4-.77.96-1.02,1.67-.25.71-.37,1.53-.37,2.43s.12,1.75.37,2.46.58,1.27,1.02,1.67c.43.41.93.61,1.48.61s1.05-.2,1.49-.61Z"/>
          <path class="el" d="M583.38,1103.3c-.29-.34-.67-.5-1.13-.5-.35,0-.66.07-.94.22-.27.14-.49.34-.65.6s-.24.55-.24.88v4.58h-1.33v-4.45c0-.54-.14-.98-.43-1.32-.29-.34-.66-.5-1.12-.5-.34,0-.65.09-.94.26-.28.18-.5.42-.66.72-.15.3-.23.63-.23.99v4.31h-1.33v-7.46h1.33v1.31l-.14-.05c.22-.37.52-.68.9-.91.37-.23.75-.35,1.14-.35.46,0,.9.13,1.32.38.42.26.74.59.95.99.25-.41.59-.74,1.04-.99.45-.26.9-.38,1.36-.38.56,0,1.05.13,1.49.38s.78.59,1.02,1.02.37.93.37,1.5v4.56h-1.35v-4.45c0-.54-.15-.98-.44-1.32Z"/>
        </g>
      </g>
      <g id="dx" data-name="LWPOLYLINE">
        <polyline class="eg" points="566.32 1076.38 566.32 1093.39 424.59 1093.39 424.59 1076.38 339.55 1076.38 339.55 1093.39 311.2 1093.39 311.2 1076.38 282.85 1076.38 282.85 1093.39"/>
      </g>
      <g id="dy" data-name="CIRCLE">
        <circle class="eg" cx="214.88" cy="1092.92" r="14.88"/>
      </g>
      <g>
        <g id="dz" data-name="HATCH">
          <path class="ei" d="M201.69,1086.03c-.12.22-.23.44-.33.67l13.17,6.89.35-.66-13.19-6.89Z"/>
        </g>
        <g id="ea" data-name="HATCH">
          <path class="ei" d="M202.06,1085.37c-.13.21-.25.43-.36.65l13.19,6.89.35-.66s-13.17-6.89-13.17-6.89Z"/>
        </g>
        <g id="eb" data-name="LINE">
          <line class="ek" x1="201.36" y1="1086.7" x2="214.54" y2="1093.58"/>
        </g>
        <g id="ec" data-name="LINE">
          <line class="ek" x1="202.06" y1="1085.37" x2="215.23" y2="1092.26"/>
        </g>
        <g id="ed" data-name="LINE">
          <line class="ek" x1="214.88" y1="1092.92" x2="201.69" y2="1086.03"/>
        </g>
      </g>
      <g id="ee" data-name="TEXT">
        <path class="ef" d="M200.36,1081.84l-.43.82-8.13.48,6.19,3.24-.42.8-7.74-4.05.43-.83,8.1-.48-6.17-3.22.42-.8,7.74,4.05Z"/>
      </g>
    </g>
  </g>
</svg>